<svg xmlns="http://www.w3.org/2000/svg" width="20.563" height="23.5" viewBox="0 0 20.563 23.5">
  <path id="Icon_awesome-copy" data-name="Icon awesome-copy" d="M14.688,20.563V22.4a1.1,1.1,0,0,1-1.1,1.1H1.1A1.1,1.1,0,0,1,0,22.4V5.508a1.1,1.1,0,0,1,1.1-1.1h3.3V17.992a2.573,2.573,0,0,0,2.57,2.57Zm0-15.789V0H6.977a1.1,1.1,0,0,0-1.1,1.1V17.992a1.1,1.1,0,0,0,1.1,1.1H19.461a1.1,1.1,0,0,0,1.1-1.1V5.875H15.789A1.1,1.1,0,0,1,14.688,4.773ZM20.24,3.349,17.213.323A1.1,1.1,0,0,0,16.434,0h-.278V4.406h4.406V4.128a1.1,1.1,0,0,0-.323-.779Z" fill="#fff"/>
</svg>